<svg width="23" height="23" viewBox="0 0 23 23" fill="none" xmlns="http://www.w3.org/2000/svg">
<path d="M16.975 10.9501C18.573 10.9501 20.1054 11.5848 21.2353 12.7147C22.3652 13.8446 23 15.3771 23 16.975C23 18.5729 22.3652 20.1054 21.2353 21.2353C20.1054 22.3652 18.573 23 16.975 23C15.3771 23 13.8447 22.3652 12.7148 21.2353C11.5849 20.1054 10.9501 18.5729 10.9501 16.975C10.9501 15.3771 11.5849 13.8446 12.7148 12.7147C13.8447 11.5848 15.3771 10.9501 16.975 10.9501ZM10.9742 13.141C10.2412 14.2852 9.85254 15.6161 9.85464 16.975C9.85464 18.7759 10.5229 20.4202 11.626 21.6745C10.7474 21.8289 9.7911 21.9045 8.75919 21.9045C5.59335 21.9045 3.14174 21.1859 1.42956 19.7136C0.981131 19.328 0.621254 18.8501 0.37453 18.3126C0.127805 17.7751 5.06467e-05 17.1907 0 16.5993V15.6057C0 14.952 0.259679 14.3251 0.72191 13.8629C1.18414 13.4006 1.81106 13.141 2.46476 13.141H10.9742ZM14.3383 14.1992L14.2616 14.2627L14.1992 14.3394C14.1361 14.4308 14.1022 14.5394 14.1022 14.6505C14.1022 14.7616 14.1361 14.8701 14.1992 14.9616L14.2627 15.0372L16.2017 16.9761L14.2649 18.9107L14.2025 18.9874C14.1393 19.0788 14.1055 19.1873 14.1055 19.2985C14.1055 19.4096 14.1393 19.5181 14.2025 19.6096L14.266 19.6863L14.3416 19.7487C14.4331 19.8118 14.5416 19.8456 14.6527 19.8456C14.7638 19.8456 14.8723 19.8118 14.9638 19.7487L15.0405 19.6852L16.975 17.7495L18.914 19.6884L18.9896 19.752C19.081 19.8151 19.1895 19.8489 19.3007 19.8489C19.4118 19.8489 19.5203 19.8151 19.6118 19.752L19.6885 19.6884L19.752 19.6118C19.8151 19.5203 19.8489 19.4118 19.8489 19.3007C19.8489 19.1895 19.8151 19.081 19.752 18.9895L19.6885 18.9129L17.7495 16.9761L19.6907 15.0372L19.7542 14.9605C19.8173 14.869 19.8511 14.7605 19.8511 14.6494C19.8511 14.5383 19.8173 14.4298 19.7542 14.3383L19.6907 14.2627L19.6151 14.1992C19.5235 14.1358 19.4148 14.1019 19.3034 14.1019C19.1921 14.1019 19.0833 14.1358 18.9918 14.1992L18.9162 14.2627L16.9761 16.2016L15.0372 14.2627L14.9605 14.1992C14.8824 14.1453 14.7917 14.1127 14.6973 14.1044C14.6028 14.0962 14.5078 14.1126 14.4216 14.1521L14.3383 14.1992ZM8.75919 0C10.2118 0 11.605 0.577063 12.6322 1.60424C13.6594 2.63142 14.2364 4.02458 14.2364 5.47723C14.2364 6.92988 13.6594 8.32303 12.6322 9.35021C11.605 10.3774 10.2118 10.9545 8.75919 10.9545C7.30654 10.9545 5.91338 10.3774 4.8862 9.35021C3.85902 8.32303 3.28196 6.92988 3.28196 5.47723C3.28196 4.02458 3.85902 2.63142 4.8862 1.60424C5.91338 0.577063 7.30654 0 8.75919 0Z" fill="white"/>
</svg>
